PathFileType	4	(X/Y/Z)	3_2_43_p0_0-493.trc
DataRate	CameraRate	NumFrames	NumMarkers	Units	OrigDataRate	OrigDataStartFrame	OrigNumFrames
60.0	60.0	5	27	m	60.0	61	494
Frame#	Time	RHip			RKnee			RAnkle			RBigToe			RSmallToe			RHeel			LHip			LKnee			LAnkle			LBigToe			LSmallToe			LHeel			Neck			Head			Nose			RShoulder			RElbow			RWrist			RThumb			RIndex			RPinky			LShoulder			LElbow			LWrist			LThumb			LIndex			LPinky			
		X1	Y1	Z1	X2	Y2	Z2	X3	Y3	Z3	X4	Y4	Z4	X5	Y5	Z5	X6	Y6	Z6	X7	Y7	Z7	X8	Y8	Z8	X9	Y9	Z9	X10	Y10	Z10	X11	Y11	Z11	X12	Y12	Z12	X13	Y13	Z13	X14	Y14	Z14	X15	Y15	Z15	X16	Y16	Z16	X17	Y17	Z17	X18	Y18	Z18	X19	Y19	Z19	X20	Y20	Z20	X21	Y21	Z21	X22	Y22	Z22	X23	Y23	Z23	X24	Y24	Z24	X25	Y25	Z25	X26	Y26	Z26	X27	Y27	Z27	
61	1.0166666666666666	0.20143920520262631	0.3654604343323414	0.9270849320922477	0.20018238006619607	0.39208687260154895	1.3891088260543667	0.16629870717162482	0.486663791687932	1.8302794172967936	0.16786508126775268	0.26544922005952726	1.8132413799910023	0.21241702837698592	0.30351367464696344	1.8195003863159234	0.150764438122362	0.5225201244710685	1.8835135929175244	-0.02367028275275867	0.3607989002071871	0.9016479858582299	-0.023550751647525275	0.37684430882076914	1.3726953466148548	-0.017196634727951077	0.44178967967685273	1.8096940355892972	0.014895284167064473	0.2326592416677582	1.8049384579041978	-0.04532223932343981	0.2812423466586372	1.8069589601885636	-0.0013242331948351306	0.5266104006404086	1.8833028374766474	0.10868420029711907	0.3571779778812426	0.3767624802862111	0.1266707123973937	0.2637561374233458	0.11601709210752889	0.10172720282873007	0.2014018869002899	0.26395436437805897	0.2667464783573621	0.32163740417388115	0.45899281447104073	0.31527630375082155	0.35595489699983374	0.7370620802938368	0.31454393717459456	0.2674091181468225	0.9868128443539419	0.26961867567573466	0.28443602303179916	1.122797696824173	0.2811832234563542	0.2937303071702709	1.1460596065896629	0.3472780866213221	0.30130324738611175	1.124492236880665	-0.041785175433491216	0.35746015708348144	0.4444510630146086	-0.1160035476641486	0.34761830673313365	0.6858379221286851	-0.1783038738748775	0.3988312403286778	0.9298542196716942	-0.16377895015695398	0.41805237607463935	1.0661582368198355	-0.1846640404674828	0.43991848911473913	1.111580073501339	-0.2026742406895156	0.42718718176551923	1.0819292065296686
62	1.0333333333333334	0.2062082424489428	0.36840970867357237	0.93553869256893	0.20439347368154384	0.3945270710909327	1.3898865869948693	0.16620504275718032	0.4872329015296005	1.830356684105031	0.16787672436171616	0.2656533858920141	1.8130846887614365	0.20802769062334642	0.30078235198873055	1.8181312353476062	0.14869221799774496	0.5216776359538887	1.8832129954673875	-0.02319337218340882	0.3619476332430466	0.9061566131760662	-0.023758162282428823	0.3766276371258233	1.372937967552726	-0.01663684371839351	0.44010435920707036	1.8129026432412592	0.01665025929478801	0.2456054789351703	1.812518016075069	-0.045501568393814064	0.2811682721658528	1.806335458475492	0.003190919404390477	0.5307990960607367	1.8849714445651333	0.10872676862983588	0.35608112804614817	0.3726044751985154	0.13287653150737855	0.2761586440305309	0.11586746294744214	0.11241476680175504	0.20380072320980616	0.2606558598790469	0.27058284867158094	0.3241601722257538	0.45929651025143703	0.31780541526077377	0.36592420571005635	0.7354976039709769	0.31879609339869386	0.26919731660684726	0.9871781320254142	0.26661762599400735	0.2740466014764841	1.123252237915278	0.28137433600658573	0.27612535214025746	1.1359817119020967	0.34707580076025935	0.30123745530957546	1.1246028307601594	-0.04163133045303526	0.35742377653645446	0.44439836633935953	-0.11602183168008462	0.3474910914253458	0.685646371481636	-0.17128053947596397	0.3842168589940476	0.9173702336712003	-0.17503388553139043	0.4455809577836282	1.055569625968464	-0.19172300184820337	0.4495961712881012	1.1062758916783964	-0.19928891023433798	0.4082383698044564	1.0670034733192055
63	1.05	0.20672328532327786	0.36820155939708055	0.9311617607590246	0.1981912046375673	0.37918042209997704	1.3788421715916848	0.16507237430161506	0.48743726341405624	1.835039497372393	0.1675994601769814	0.26182853686960206	1.8113748672535546	0.20866068445007785	0.2992721088889493	1.8219366171834899	0.14769591748032715	0.5185795150688386	1.877348376962735	-0.02321443207960831	0.3620670164679821	0.9061545532973846	-0.02365899983601713	0.3762195547209394	1.372608118060293	-0.009937338314812617	0.42506097248445035	1.804284932248226	0.01693558528390542	0.2445467704257375	1.8122590739487954	-0.04533047753672678	0.2806835910515175	1.8064970539578165	0.003176378080956573	0.5307407209606323	1.8853071420382403	0.10894818757807345	0.3566092453823701	0.37284659772243817	0.13317657181127443	0.27789571797402285	0.11943932593194312	0.12108161478171628	0.22756391906205145	0.26514191282326377	0.2742218300640531	0.3370927432410809	0.4645583764503453	0.3186482409822511	0.36650398813386026	0.7429139085674111	0.32634243226637943	0.2673648804729389	0.9861643708246866	0.26748636666142406	0.27443994721573084	1.1195216530094236	0.28609743520743036	0.27643234443302156	1.1433677069660049	0.3421423883116888	0.31601086325094985	1.1337632793737216	-0.04004850658814123	0.3696694948016493	0.44574762322744915	-0.11612743420531842	0.3476286535525516	0.6855538768855335	-0.17403760091417164	0.39989870510352	0.9216095484516829	-0.17532361005024935	0.44580957484395584	1.042522466358216	-0.19125158659052247	0.44734987995386044	1.0962639309065314	-0.1986117539117616	0.4089546135473926	1.0618739462321223
64	1.0666666666666667	0.20694238421179093	0.3678980738377034	0.931182033852232	0.19744325937881196	0.3769358485170111	1.373648893311929	0.164252044561554	0.485936407550343	1.8290521456460038	0.1675673901117529	0.26240958255773594	1.8108733688759102	0.21087523817533876	0.3128833470501486	1.82502966250909	0.14768654057007383	0.5197873253594026	1.876967303537476	-0.023264467678789435	0.35980390853625127	0.905140917555989	-0.022860714727844157	0.37566581099771273	1.368453359150426	-0.012382474702868582	0.4411582516260062	1.817286152459891	0.01802819325961505	0.24523573352974165	1.8082577954261554	-0.04548073884880818	0.28092748832370495	1.8065018612762438	0.0031933906575706567	0.5309232352870632	1.8849995251713028	0.11331727864361295	0.3601335201532747	0.3770614660106951	0.1378564331469012	0.2677968307827013	0.11650681648638833	0.127460419994062	0.2406884584298913	0.26564658651392986	0.2779118023699088	0.3488777321222228	0.4770144582851155	0.3187294069895797	0.3668559590995749	0.7431986082716822	0.32984520633806563	0.2782598193968712	0.9936364452619821	0.2724312389271325	0.2597807368720547	1.117935884103857	0.2909748847145239	0.26234992116498357	1.138131436497849	0.33513015555544257	0.3177150702507192	1.1325520294754339	-0.03990191326750906	0.3698258131381002	0.445745184409992	-0.11445249323194258	0.3599077750674858	0.6877101587054327	-0.17321194316975577	0.41434058423928344	0.9211186384620543	-0.17596107646645762	0.4463616706057823	1.0417074460212203	-0.19199360242324837	0.4475707652700929	1.0916718714000713	-0.20562103628245149	0.42259407191733855	1.0615512751281468
65	1.0833333333333333	0.21150116215684953	0.35284652514641585	0.922995984057573	0.1939808186097048	0.3628069439413784	1.3762330909862517	0.1642380701454228	0.48522603806240383	1.828936996027633	0.16750663973880514	0.26220859756744475	1.8102979283486333	0.20847983938635276	0.2980114351386489	1.8205141047985391	0.1477853272085438	0.5196598098547729	1.8768368266986164	-0.017371865588204083	0.34700109656227135	0.901365711295469	-0.02422463448390232	0.3738245747775741	1.367073049665604	-0.005789290624949292	0.42623315363432007	1.808586062123445	0.018100830655068567	0.2451944469286604	1.8080870460644172	-0.04536421983197805	0.2808381197764481	1.805690702539008	0.00306679110616248	0.530425395801991	1.8846966977197714	0.12093680587794194	0.3602640073064842	0.3768690081710024	0.14003219013555718	0.2784938653360137	0.11683687492217733	0.1275472492154428	0.24120531652141383	0.26272003446210024	0.28506400385292374	0.36293781111762646	0.4788530585508924	0.3188201873051696	0.3671210904893864	0.7431168972881076	0.3269488582451048	0.2664689636491855	0.9901593724126544	0.2724306206545486	0.25998916584122816	1.1183427008806142	0.2921170092625746	0.2474356667961261	1.13326286559909	0.3328750555632532	0.3440972089490423	1.1453803624034427	-0.0358681153896025	0.37214906425507016	0.4458198711041911	-0.11433493546565479	0.36020894328896236	0.6877382555688777	-0.17318604830569365	0.41455686097404326	0.9211103759503922	-0.16918137960026433	0.433429803569212	1.0376480787640148	-0.19193364863882592	0.44753672157756547	1.0919420128698538	-0.2063190619423232	0.4222063855638863	1.0534615033100687
